{
	"patcher" : 	{
		"fileversion" : 1,
		"appversion" : 		{
			"major" : 8,
			"minor" : 1,
			"revision" : 1,
			"architecture" : "x64",
			"modernui" : 1
		}
,
		"classnamespace" : "box",
		"rect" : [ 988.0, 85.0, 890.0, 930.0 ],
		"bglocked" : 0,
		"openinpresentation" : 0,
		"default_fontsize" : 12.0,
		"default_fontface" : 0,
		"default_fontname" : "Arial",
		"gridonopen" : 1,
		"gridsize" : [ 15.0, 15.0 ],
		"gridsnaponopen" : 1,
		"objectsnaponopen" : 1,
		"statusbarvisible" : 2,
		"toolbarvisible" : 1,
		"lefttoolbarpinned" : 0,
		"toptoolbarpinned" : 0,
		"righttoolbarpinned" : 0,
		"bottomtoolbarpinned" : 0,
		"toolbars_unpinned_last_save" : 0,
		"tallnewobj" : 0,
		"boxanimatetime" : 200,
		"enablehscroll" : 1,
		"enablevscroll" : 1,
		"devicewidth" : 0.0,
		"description" : "",
		"digest" : "",
		"tags" : "",
		"style" : "",
		"subpatcher_template" : "",
		"boxes" : [ 			{
				"box" : 				{
					"id" : "obj-5",
					"maxclass" : "button",
					"numinlets" : 1,
					"numoutlets" : 1,
					"outlettype" : [ "bang" ],
					"parameter_enable" : 0,
					"patching_rect" : [ 269.0, 316.0, 24.0, 24.0 ]
				}

			}
, 			{
				"box" : 				{
					"id" : "obj-89",
					"maxclass" : "newobj",
					"numinlets" : 0,
					"numoutlets" : 1,
					"outlettype" : [ "" ],
					"patching_rect" : [ 433.5, 586.745885133743286, 59.0, 22.0 ],
					"text" : "r mainout"
				}

			}
, 			{
				"box" : 				{
					"id" : "obj-13",
					"maxclass" : "ezdac~",
					"numinlets" : 2,
					"numoutlets" : 0,
					"patching_rect" : [ 432.5, 785.745885133743286, 45.0, 45.0 ]
				}

			}
, 			{
				"box" : 				{
					"id" : "obj-12",
					"lastchannelcount" : 0,
					"maxclass" : "live.gain~",
					"numinlets" : 2,
					"numoutlets" : 5,
					"outlettype" : [ "signal", "signal", "", "float", "list" ],
					"parameter_enable" : 1,
					"patching_rect" : [ 432.5, 627.745885133743286, 48.0, 136.0 ],
					"presentation" : 1,
					"presentation_rect" : [ 1044.872557640075684, 262.75, 48.0, 136.0 ],
					"saved_attribute_attributes" : 					{
						"valueof" : 						{
							"parameter_type" : 0,
							"parameter_unitstyle" : 4,
							"parameter_mmin" : -70.0,
							"parameter_longname" : "live.gain~",
							"parameter_mmax" : 6.0,
							"parameter_shortname" : "live.gain~"
						}

					}
,
					"varname" : "live.gain~"
				}

			}
, 			{
				"box" : 				{
					"id" : "obj-505",
					"maxclass" : "newobj",
					"numinlets" : 0,
					"numoutlets" : 1,
					"outlettype" : [ "" ],
					"patching_rect" : [ 80.25, 514.498575992882252, 43.0, 22.0 ],
					"text" : "r ramp"
				}

			}
, 			{
				"box" : 				{
					"id" : "obj-231",
					"maxclass" : "newobj",
					"numinlets" : 0,
					"numoutlets" : 1,
					"outlettype" : [ "" ],
					"patching_rect" : [ 32.5, 425.750480215549487, 55.0, 22.0 ],
					"text" : "r toggle1"
				}

			}
, 			{
				"box" : 				{
					"id" : "obj-95",
					"maxclass" : "newobj",
					"numinlets" : 0,
					"numoutlets" : 1,
					"outlettype" : [ "" ],
					"patching_rect" : [ 32.5, 286.827909484505653, 65.0, 22.0 ],
					"text" : "r curpos1x"
				}

			}
, 			{
				"box" : 				{
					"id" : "obj-84",
					"maxclass" : "newobj",
					"numinlets" : 3,
					"numoutlets" : 3,
					"outlettype" : [ "int", "", "" ],
					"patcher" : 					{
						"fileversion" : 1,
						"appversion" : 						{
							"major" : 8,
							"minor" : 1,
							"revision" : 1,
							"architecture" : "x64",
							"modernui" : 1
						}
,
						"classnamespace" : "box",
						"rect" : [ 1238.0, 473.0, 640.0, 480.0 ],
						"bglocked" : 0,
						"openinpresentation" : 0,
						"default_fontsize" : 12.0,
						"default_fontface" : 0,
						"default_fontname" : "Arial",
						"gridonopen" : 1,
						"gridsize" : [ 15.0, 15.0 ],
						"gridsnaponopen" : 1,
						"objectsnaponopen" : 1,
						"statusbarvisible" : 2,
						"toolbarvisible" : 1,
						"lefttoolbarpinned" : 0,
						"toptoolbarpinned" : 0,
						"righttoolbarpinned" : 0,
						"bottomtoolbarpinned" : 0,
						"toolbars_unpinned_last_save" : 0,
						"tallnewobj" : 0,
						"boxanimatetime" : 200,
						"enablehscroll" : 1,
						"enablevscroll" : 1,
						"devicewidth" : 0.0,
						"description" : "",
						"digest" : "",
						"tags" : "",
						"style" : "",
						"subpatcher_template" : "",
						"boxes" : [ 							{
								"box" : 								{
									"id" : "obj-12",
									"maxclass" : "message",
									"numinlets" : 2,
									"numoutlets" : 1,
									"outlettype" : [ "" ],
									"patching_rect" : [ 256.0, 146.5, 39.0, 22.0 ],
									"text" : "-1000"
								}

							}
, 							{
								"box" : 								{
									"id" : "obj-13",
									"maxclass" : "newobj",
									"numinlets" : 0,
									"numoutlets" : 1,
									"outlettype" : [ "" ],
									"patching_rect" : [ 256.0, 103.0, 53.0, 22.0 ],
									"text" : "r p-reset"
								}

							}
, 							{
								"box" : 								{
									"id" : "obj-8",
									"maxclass" : "message",
									"numinlets" : 2,
									"numoutlets" : 1,
									"outlettype" : [ "" ],
									"patching_rect" : [ 577.0, 146.5, 39.0, 22.0 ],
									"text" : "-1000"
								}

							}
, 							{
								"box" : 								{
									"id" : "obj-2",
									"maxclass" : "newobj",
									"numinlets" : 0,
									"numoutlets" : 1,
									"outlettype" : [ "" ],
									"patching_rect" : [ 577.0, 103.0, 53.0, 22.0 ],
									"text" : "r p-reset"
								}

							}
, 							{
								"box" : 								{
									"id" : "obj-10",
									"maxclass" : "comment",
									"numinlets" : 1,
									"numoutlets" : 0,
									"patching_rect" : [ 392.5, 38.0, 97.0, 20.0 ],
									"text" : "IN: CurpositionZ"
								}

							}
, 							{
								"box" : 								{
									"id" : "obj-9",
									"maxclass" : "comment",
									"numinlets" : 1,
									"numoutlets" : 0,
									"patching_rect" : [ 260.75, 38.0, 97.0, 20.0 ],
									"text" : "IN: CurpositionX"
								}

							}
, 							{
								"box" : 								{
									"id" : "obj-7",
									"maxclass" : "comment",
									"numinlets" : 1,
									"numoutlets" : 0,
									"patching_rect" : [ 65.0, 33.0, 150.0, 20.0 ],
									"text" : "IN: Set pos."
								}

							}
, 							{
								"box" : 								{
									"comment" : "",
									"id" : "obj-5",
									"index" : 3,
									"maxclass" : "inlet",
									"numinlets" : 0,
									"numoutlets" : 1,
									"outlettype" : [ "" ],
									"patching_rect" : [ 360.5, 33.0, 30.0, 30.0 ]
								}

							}
, 							{
								"box" : 								{
									"comment" : "",
									"id" : "obj-1",
									"index" : 2,
									"maxclass" : "inlet",
									"numinlets" : 0,
									"numoutlets" : 1,
									"outlettype" : [ "" ],
									"patching_rect" : [ 228.5, 33.0, 30.0, 30.0 ]
								}

							}
, 							{
								"box" : 								{
									"comment" : "",
									"id" : "obj-3",
									"index" : 3,
									"maxclass" : "outlet",
									"numinlets" : 1,
									"numoutlets" : 0,
									"patching_rect" : [ 594.5, 249.5, 30.0, 30.0 ]
								}

							}
, 							{
								"box" : 								{
									"comment" : "",
									"id" : "obj-4",
									"index" : 2,
									"maxclass" : "outlet",
									"numinlets" : 1,
									"numoutlets" : 0,
									"patching_rect" : [ 284.0, 249.5, 30.0, 30.0 ]
								}

							}
, 							{
								"box" : 								{
									"id" : "obj-260",
									"maxclass" : "newobj",
									"numinlets" : 0,
									"numoutlets" : 1,
									"outlettype" : [ "" ],
									"patching_rect" : [ 605.5, 178.5, 53.0, 22.0 ],
									"text" : "r margin"
								}

							}
, 							{
								"box" : 								{
									"id" : "obj-259",
									"maxclass" : "newobj",
									"numinlets" : 0,
									"numoutlets" : 1,
									"outlettype" : [ "" ],
									"patching_rect" : [ 295.0, 178.5, 53.0, 22.0 ],
									"text" : "r margin"
								}

							}
, 							{
								"box" : 								{
									"id" : "obj-236",
									"maxclass" : "newobj",
									"numinlets" : 2,
									"numoutlets" : 1,
									"outlettype" : [ "int" ],
									"patching_rect" : [ 260.75, 399.5, 29.5, 22.0 ],
									"text" : "&&"
								}

							}
, 							{
								"box" : 								{
									"id" : "obj-233",
									"maxclass" : "toggle",
									"numinlets" : 1,
									"numoutlets" : 1,
									"outlettype" : [ "int" ],
									"parameter_enable" : 0,
									"patching_rect" : [ 384.5, 339.5, 24.0, 24.0 ]
								}

							}
, 							{
								"box" : 								{
									"id" : "obj-234",
									"maxclass" : "button",
									"numinlets" : 1,
									"numoutlets" : 1,
									"outlettype" : [ "bang" ],
									"parameter_enable" : 0,
									"patching_rect" : [ 384.5, 299.0, 24.0, 24.0 ]
								}

							}
, 							{
								"box" : 								{
									"id" : "obj-235",
									"maxclass" : "newobj",
									"numinlets" : 1,
									"numoutlets" : 3,
									"outlettype" : [ "", "int", "int" ],
									"patching_rect" : [ 360.5, 253.5, 48.0, 22.0 ],
									"text" : "change"
								}

							}
, 							{
								"box" : 								{
									"format" : 6,
									"id" : "obj-232",
									"maxclass" : "flonum",
									"numinlets" : 1,
									"numoutlets" : 2,
									"outlettype" : [ "", "bang" ],
									"parameter_enable" : 0,
									"patching_rect" : [ 483.0, 182.5, 50.0, 22.0 ]
								}

							}
, 							{
								"box" : 								{
									"id" : "obj-230",
									"maxclass" : "newobj",
									"numinlets" : 3,
									"numoutlets" : 1,
									"outlettype" : [ "" ],
									"patching_rect" : [ 360.5, 216.5, 264.0, 22.0 ],
									"text" : "if $f2 - $f3 < $f1 && $f1 < $f2 + $f3 then 1 else 0"
								}

							}
, 							{
								"box" : 								{
									"id" : "obj-229",
									"maxclass" : "message",
									"numinlets" : 2,
									"numoutlets" : 1,
									"outlettype" : [ "" ],
									"patching_rect" : [ 483.0, 146.5, 72.0, 22.0 ],
									"text" : "0.271086"
								}

							}
, 							{
								"box" : 								{
									"format" : 6,
									"id" : "obj-164",
									"maxclass" : "flonum",
									"numinlets" : 1,
									"numoutlets" : 2,
									"outlettype" : [ "", "bang" ],
									"parameter_enable" : 0,
									"patching_rect" : [ 172.5, 182.5, 50.0, 22.0 ]
								}

							}
, 							{
								"box" : 								{
									"id" : "obj-162",
									"maxclass" : "toggle",
									"numinlets" : 1,
									"numoutlets" : 1,
									"outlettype" : [ "int" ],
									"parameter_enable" : 0,
									"patching_rect" : [ 71.5, 337.5, 24.0, 24.0 ]
								}

							}
, 							{
								"box" : 								{
									"id" : "obj-33",
									"maxclass" : "newobj",
									"numinlets" : 3,
									"numoutlets" : 1,
									"outlettype" : [ "" ],
									"patching_rect" : [ 50.0, 216.5, 264.0, 22.0 ],
									"text" : "if $f2 - $f3 < $f1 && $f1 < $f2 + $f3 then 1 else 0"
								}

							}
, 							{
								"box" : 								{
									"id" : "obj-75",
									"maxclass" : "message",
									"numinlets" : 2,
									"numoutlets" : 1,
									"outlettype" : [ "" ],
									"patching_rect" : [ 172.5, 146.5, 75.0, 22.0 ],
									"text" : "0.373656"
								}

							}
, 							{
								"box" : 								{
									"id" : "obj-129",
									"maxclass" : "button",
									"numinlets" : 1,
									"numoutlets" : 1,
									"outlettype" : [ "bang" ],
									"parameter_enable" : 0,
									"patching_rect" : [ 71.5, 299.0, 24.0, 24.0 ]
								}

							}
, 							{
								"box" : 								{
									"id" : "obj-113",
									"maxclass" : "newobj",
									"numinlets" : 1,
									"numoutlets" : 3,
									"outlettype" : [ "", "int", "int" ],
									"patching_rect" : [ 50.0, 253.5, 48.0, 22.0 ],
									"text" : "change"
								}

							}
, 							{
								"box" : 								{
									"comment" : "",
									"id" : "obj-11",
									"index" : 1,
									"maxclass" : "inlet",
									"numinlets" : 0,
									"numoutlets" : 1,
									"outlettype" : [ "bang" ],
									"patching_rect" : [ 27.0, 28.0, 30.0, 30.0 ]
								}

							}
, 							{
								"box" : 								{
									"comment" : "",
									"id" : "obj-14",
									"index" : 1,
									"maxclass" : "outlet",
									"numinlets" : 1,
									"numoutlets" : 0,
									"patching_rect" : [ 260.75, 509.5, 30.0, 30.0 ]
								}

							}
 ],
						"lines" : [ 							{
								"patchline" : 								{
									"destination" : [ "obj-33", 0 ],
									"order" : 1,
									"source" : [ "obj-1", 0 ]
								}

							}
, 							{
								"patchline" : 								{
									"destination" : [ "obj-75", 1 ],
									"order" : 0,
									"source" : [ "obj-1", 0 ]
								}

							}
, 							{
								"patchline" : 								{
									"destination" : [ "obj-229", 0 ],
									"order" : 0,
									"source" : [ "obj-11", 0 ]
								}

							}
, 							{
								"patchline" : 								{
									"destination" : [ "obj-75", 0 ],
									"order" : 1,
									"source" : [ "obj-11", 0 ]
								}

							}
, 							{
								"patchline" : 								{
									"destination" : [ "obj-129", 0 ],
									"source" : [ "obj-113", 2 ]
								}

							}
, 							{
								"patchline" : 								{
									"destination" : [ "obj-129", 0 ],
									"source" : [ "obj-113", 1 ]
								}

							}
, 							{
								"patchline" : 								{
									"destination" : [ "obj-164", 0 ],
									"source" : [ "obj-12", 0 ]
								}

							}
, 							{
								"patchline" : 								{
									"destination" : [ "obj-162", 0 ],
									"source" : [ "obj-129", 0 ]
								}

							}
, 							{
								"patchline" : 								{
									"destination" : [ "obj-12", 0 ],
									"source" : [ "obj-13", 0 ]
								}

							}
, 							{
								"patchline" : 								{
									"destination" : [ "obj-236", 0 ],
									"midpoints" : [ 81.0, 380.0, 270.25, 380.0 ],
									"source" : [ "obj-162", 0 ]
								}

							}
, 							{
								"patchline" : 								{
									"destination" : [ "obj-33", 1 ],
									"order" : 1,
									"source" : [ "obj-164", 0 ]
								}

							}
, 							{
								"patchline" : 								{
									"destination" : [ "obj-4", 0 ],
									"midpoints" : [ 182.0, 207.0, 324.0, 207.0, 324.0, 243.0, 293.5, 243.0 ],
									"order" : 0,
									"source" : [ "obj-164", 0 ]
								}

							}
, 							{
								"patchline" : 								{
									"destination" : [ "obj-8", 0 ],
									"source" : [ "obj-2", 0 ]
								}

							}
, 							{
								"patchline" : 								{
									"destination" : [ "obj-232", 0 ],
									"source" : [ "obj-229", 0 ]
								}

							}
, 							{
								"patchline" : 								{
									"destination" : [ "obj-235", 0 ],
									"source" : [ "obj-230", 0 ]
								}

							}
, 							{
								"patchline" : 								{
									"destination" : [ "obj-230", 1 ],
									"order" : 1,
									"source" : [ "obj-232", 0 ]
								}

							}
, 							{
								"patchline" : 								{
									"destination" : [ "obj-3", 0 ],
									"midpoints" : [ 492.5, 211.0, 638.0, 211.0, 638.0, 243.0, 604.0, 243.0 ],
									"order" : 0,
									"source" : [ "obj-232", 0 ]
								}

							}
, 							{
								"patchline" : 								{
									"destination" : [ "obj-236", 1 ],
									"midpoints" : [ 394.0, 379.0, 280.75, 379.0 ],
									"source" : [ "obj-233", 0 ]
								}

							}
, 							{
								"patchline" : 								{
									"destination" : [ "obj-233", 0 ],
									"order" : 0,
									"source" : [ "obj-234", 0 ]
								}

							}
, 							{
								"patchline" : 								{
									"destination" : [ "obj-236", 0 ],
									"midpoints" : [ 394.0, 332.75, 270.25, 332.75 ],
									"order" : 1,
									"source" : [ "obj-234", 0 ]
								}

							}
, 							{
								"patchline" : 								{
									"destination" : [ "obj-234", 0 ],
									"source" : [ "obj-235", 2 ]
								}

							}
, 							{
								"patchline" : 								{
									"destination" : [ "obj-234", 0 ],
									"source" : [ "obj-235", 1 ]
								}

							}
, 							{
								"patchline" : 								{
									"destination" : [ "obj-14", 0 ],
									"source" : [ "obj-236", 0 ]
								}

							}
, 							{
								"patchline" : 								{
									"destination" : [ "obj-33", 2 ],
									"source" : [ "obj-259", 0 ]
								}

							}
, 							{
								"patchline" : 								{
									"destination" : [ "obj-230", 2 ],
									"source" : [ "obj-260", 0 ]
								}

							}
, 							{
								"patchline" : 								{
									"destination" : [ "obj-113", 0 ],
									"source" : [ "obj-33", 0 ]
								}

							}
, 							{
								"patchline" : 								{
									"destination" : [ "obj-229", 1 ],
									"order" : 0,
									"source" : [ "obj-5", 0 ]
								}

							}
, 							{
								"patchline" : 								{
									"destination" : [ "obj-230", 0 ],
									"order" : 1,
									"source" : [ "obj-5", 0 ]
								}

							}
, 							{
								"patchline" : 								{
									"destination" : [ "obj-164", 0 ],
									"source" : [ "obj-75", 0 ]
								}

							}
, 							{
								"patchline" : 								{
									"destination" : [ "obj-232", 0 ],
									"source" : [ "obj-8", 0 ]
								}

							}
 ]
					}
,
					"patching_rect" : [ 32.5, 348.998575992882252, 109.68131959438324, 22.0 ],
					"saved_object_attributes" : 					{
						"description" : "",
						"digest" : "",
						"globalpatchername" : "",
						"tags" : ""
					}
,
					"text" : "p setMarker"
				}

			}
, 			{
				"box" : 				{
					"id" : "obj-20",
					"maxclass" : "message",
					"numinlets" : 2,
					"numoutlets" : 1,
					"outlettype" : [ "" ],
					"patching_rect" : [ 55.75, 547.498575992882252, 43.5, 22.0 ],
					"text" : "500"
				}

			}
, 			{
				"box" : 				{
					"id" : "obj-7",
					"maxclass" : "newobj",
					"numinlets" : 3,
					"numoutlets" : 2,
					"outlettype" : [ "", "bang" ],
					"patching_rect" : [ 45.25, 581.498575992882252, 40.0, 22.0 ],
					"text" : "line"
				}

			}
, 			{
				"box" : 				{
					"id" : "obj-125",
					"maxclass" : "newobj",
					"numinlets" : 6,
					"numoutlets" : 1,
					"outlettype" : [ "" ],
					"patching_rect" : [ 32.5, 386.498575992882252, 91.0, 22.0 ],
					"text" : "scale 0 1 -70 -6"
				}

			}
, 			{
				"box" : 				{
					"id" : "obj-111",
					"lastchannelcount" : 0,
					"maxclass" : "live.gain~",
					"numinlets" : 2,
					"numoutlets" : 5,
					"outlettype" : [ "signal", "signal", "", "float", "list" ],
					"parameter_enable" : 1,
					"patching_rect" : [ 32.5, 643.623575992882252, 48.0, 136.0 ],
					"presentation" : 1,
					"presentation_rect" : [ 57.265363613764521, 578.899351119995117, 48.0, 136.0 ],
					"saved_attribute_attributes" : 					{
						"valueof" : 						{
							"parameter_type" : 0,
							"parameter_unitstyle" : 4,
							"parameter_mmin" : -70.0,
							"parameter_longname" : "P1 T1",
							"parameter_initial_enable" : 1,
							"parameter_mmax" : 6.0,
							"parameter_initial" : [ -70.0 ],
							"parameter_shortname" : "P1 T1 Vol"
						}

					}
,
					"varname" : "live.gain~[1]"
				}

			}
, 			{
				"box" : 				{
					"clipheight" : 34.0,
					"data" : 					{
						"clips" : [ 							{
								"absolutepath" : "C:\\Users\\niksi\\Documents\\GitHub\\ARKit-Project\\assets\\Piano freefallin.wav",
								"filename" : "Piano freefallin.wav",
								"filekind" : "audiofile",
								"selection" : [ 0.0, 1.0 ],
								"loop" : 1,
								"content_state" : 								{
									"quality" : [ "basic" ],
									"mode" : [ "basic" ],
									"formant" : [ 1.0 ],
									"originaltempo" : [ 120.0 ],
									"basictuning" : [ 440 ],
									"originallengthms" : [ 0.0 ],
									"pitchcorrection" : [ 0 ],
									"followglobaltempo" : [ 0 ],
									"slurtime" : [ 0.0 ],
									"speed" : [ 1.0 ],
									"timestretch" : [ 0 ],
									"formantcorrection" : [ 0 ],
									"play" : [ 0 ],
									"pitchshift" : [ 1.0 ],
									"originallength" : [ 0.0, "ticks" ]
								}

							}
 ]
					}
,
					"expansion" : "static",
					"id" : "obj-96",
					"maxclass" : "playlist~",
					"numinlets" : 1,
					"numoutlets" : 5,
					"outlettype" : [ "signal", "signal", "signal", "", "dictionary" ],
					"patching_rect" : [ 32.5, 460.498575992882252, 91.0, 26.0 ],
					"presentation" : 1,
					"presentation_rect" : [ 35.765363613764521, 532.75, 91.0, 26.0 ],
					"waveformdisplay" : 0
				}

			}
, 			{
				"box" : 				{
					"id" : "obj-32",
					"maxclass" : "newobj",
					"numinlets" : 1,
					"numoutlets" : 0,
					"patching_rect" : [ 32.5, 801.745885133743286, 61.0, 22.0 ],
					"text" : "s mainout"
				}

			}
, 			{
				"box" : 				{
					"id" : "obj-2",
					"linecount" : 2,
					"maxclass" : "comment",
					"numinlets" : 1,
					"numoutlets" : 0,
					"patching_rect" : [ 419.0, 93.811696119606495, 286.0, 34.0 ],
					"text" : "Dans ton ordi, va chercher ton adress IP et change l'adress IP dans ZIGSIM pour celle de ton iPhone"
				}

			}
, 			{
				"box" : 				{
					"bubble" : 1,
					"id" : "obj-103",
					"maxclass" : "comment",
					"numinlets" : 1,
					"numoutlets" : 0,
					"patching_rect" : [ 140.0, 20.480517387390137, 77.0, 24.0 ],
					"text" : "iPhone 2"
				}

			}
, 			{
				"box" : 				{
					"id" : "obj-104",
					"maxclass" : "newobj",
					"numinlets" : 1,
					"numoutlets" : 0,
					"patching_rect" : [ 285.5, 191.811696119606495, 67.0, 22.0 ],
					"text" : "s curpos2z"
				}

			}
, 			{
				"box" : 				{
					"id" : "obj-105",
					"maxclass" : "newobj",
					"numinlets" : 1,
					"numoutlets" : 0,
					"patching_rect" : [ 147.5, 191.811696119606495, 67.0, 22.0 ],
					"text" : "s curpos2y"
				}

			}
, 			{
				"box" : 				{
					"id" : "obj-106",
					"maxclass" : "newobj",
					"numinlets" : 1,
					"numoutlets" : 0,
					"patching_rect" : [ 9.5, 191.811696119606495, 67.0, 22.0 ],
					"text" : "s curpos2x"
				}

			}
, 			{
				"box" : 				{
					"format" : 6,
					"id" : "obj-107",
					"maxclass" : "flonum",
					"numinlets" : 1,
					"numoutlets" : 2,
					"outlettype" : [ "", "bang" ],
					"parameter_enable" : 0,
					"patching_rect" : [ 355.694805145263672, 191.811696119606495, 50.0, 22.0 ]
				}

			}
, 			{
				"box" : 				{
					"format" : 6,
					"id" : "obj-108",
					"maxclass" : "flonum",
					"numinlets" : 1,
					"numoutlets" : 2,
					"outlettype" : [ "", "bang" ],
					"parameter_enable" : 0,
					"patching_rect" : [ 216.5, 191.811696119606495, 50.0, 22.0 ]
				}

			}
, 			{
				"box" : 				{
					"format" : 6,
					"id" : "obj-109",
					"maxclass" : "flonum",
					"numinlets" : 1,
					"numoutlets" : 2,
					"outlettype" : [ "", "bang" ],
					"parameter_enable" : 0,
					"patching_rect" : [ 78.5, 191.811696119606495, 50.0, 22.0 ]
				}

			}
, 			{
				"box" : 				{
					"id" : "obj-110",
					"maxclass" : "newobj",
					"numinlets" : 1,
					"numoutlets" : 3,
					"outlettype" : [ "float", "float", "float" ],
					"patching_rect" : [ 9.5, 149.811696119606495, 295.0, 22.0 ],
					"text" : "unpack f f f"
				}

			}
, 			{
				"box" : 				{
					"id" : "obj-114",
					"maxclass" : "newobj",
					"numinlets" : 2,
					"numoutlets" : 2,
					"outlettype" : [ "", "" ],
					"patching_rect" : [ 9.5, 105.811696119606495, 107.0, 22.0 ],
					"text" : "route /arkitposition"
				}

			}
, 			{
				"box" : 				{
					"id" : "obj-115",
					"maxclass" : "newobj",
					"numinlets" : 1,
					"numoutlets" : 2,
					"outlettype" : [ "", "" ],
					"patching_rect" : [ 9.5, 61.480517387390137, 132.0, 22.0 ],
					"text" : "osc-route /ZIGSIM/jake"
				}

			}
, 			{
				"box" : 				{
					"id" : "obj-116",
					"maxclass" : "newobj",
					"numinlets" : 1,
					"numoutlets" : 1,
					"outlettype" : [ "" ],
					"patching_rect" : [ 9.5, 20.480517387390137, 97.0, 22.0 ],
					"text" : "udpreceive 3335"
				}

			}
 ],
		"lines" : [ 			{
				"patchline" : 				{
					"destination" : [ "obj-104", 0 ],
					"order" : 1,
					"source" : [ "obj-110", 2 ]
				}

			}
, 			{
				"patchline" : 				{
					"destination" : [ "obj-105", 0 ],
					"order" : 1,
					"source" : [ "obj-110", 1 ]
				}

			}
, 			{
				"patchline" : 				{
					"destination" : [ "obj-106", 0 ],
					"order" : 1,
					"source" : [ "obj-110", 0 ]
				}

			}
, 			{
				"patchline" : 				{
					"destination" : [ "obj-107", 0 ],
					"order" : 0,
					"source" : [ "obj-110", 2 ]
				}

			}
, 			{
				"patchline" : 				{
					"destination" : [ "obj-108", 0 ],
					"order" : 0,
					"source" : [ "obj-110", 1 ]
				}

			}
, 			{
				"patchline" : 				{
					"destination" : [ "obj-109", 0 ],
					"order" : 0,
					"source" : [ "obj-110", 0 ]
				}

			}
, 			{
				"patchline" : 				{
					"destination" : [ "obj-32", 0 ],
					"source" : [ "obj-111", 0 ]
				}

			}
, 			{
				"patchline" : 				{
					"destination" : [ "obj-110", 0 ],
					"source" : [ "obj-114", 0 ]
				}

			}
, 			{
				"patchline" : 				{
					"destination" : [ "obj-114", 0 ],
					"midpoints" : [ 19.0, 95.480517387390137, 19.0, 95.480517387390137 ],
					"source" : [ "obj-115", 0 ]
				}

			}
, 			{
				"patchline" : 				{
					"destination" : [ "obj-115", 0 ],
					"source" : [ "obj-116", 0 ]
				}

			}
, 			{
				"patchline" : 				{
					"destination" : [ "obj-13", 1 ],
					"order" : 0,
					"source" : [ "obj-12", 0 ]
				}

			}
, 			{
				"patchline" : 				{
					"destination" : [ "obj-13", 0 ],
					"order" : 1,
					"source" : [ "obj-12", 0 ]
				}

			}
, 			{
				"patchline" : 				{
					"destination" : [ "obj-20", 0 ],
					"midpoints" : [ 42.0, 410.047611474990845, 26.6899584134419, 410.047611474990845, 26.6899584134419, 497.388698935508728, 65.25, 497.388698935508728 ],
					"order" : 0,
					"source" : [ "obj-125", 0 ]
				}

			}
, 			{
				"patchline" : 				{
					"destination" : [ "obj-7", 0 ],
					"midpoints" : [ 42.0, 410.047611474990845, 26.6899584134419, 410.047611474990845, 26.6899584134419, 498.303430140018463, 54.75, 498.303430140018463 ],
					"order" : 1,
					"source" : [ "obj-125", 0 ]
				}

			}
, 			{
				"patchline" : 				{
					"destination" : [ "obj-7", 1 ],
					"source" : [ "obj-20", 0 ]
				}

			}
, 			{
				"patchline" : 				{
					"destination" : [ "obj-96", 0 ],
					"source" : [ "obj-231", 0 ]
				}

			}
, 			{
				"patchline" : 				{
					"destination" : [ "obj-84", 0 ],
					"source" : [ "obj-5", 0 ]
				}

			}
, 			{
				"patchline" : 				{
					"destination" : [ "obj-20", 1 ],
					"source" : [ "obj-505", 0 ]
				}

			}
, 			{
				"patchline" : 				{
					"destination" : [ "obj-111", 0 ],
					"source" : [ "obj-7", 0 ]
				}

			}
, 			{
				"patchline" : 				{
					"destination" : [ "obj-125", 0 ],
					"source" : [ "obj-84", 0 ]
				}

			}
, 			{
				"patchline" : 				{
					"destination" : [ "obj-12", 0 ],
					"source" : [ "obj-89", 0 ]
				}

			}
, 			{
				"patchline" : 				{
					"destination" : [ "obj-84", 1 ],
					"midpoints" : [ 42.0, 327.913242738693953, 87.34065979719162, 327.913242738693953 ],
					"source" : [ "obj-95", 0 ]
				}

			}
, 			{
				"patchline" : 				{
					"destination" : [ "obj-111", 1 ],
					"source" : [ "obj-96", 1 ]
				}

			}
, 			{
				"patchline" : 				{
					"destination" : [ "obj-111", 0 ],
					"source" : [ "obj-96", 0 ]
				}

			}
 ],
		"parameters" : 		{
			"obj-12" : [ "live.gain~", "live.gain~", 0 ],
			"obj-111" : [ "P1 T1", "P1 T1 Vol", 0 ],
			"parameterbanks" : 			{

			}

		}
,
		"dependency_cache" : [ 			{
				"name" : "Piano freefallin.wav",
				"bootpath" : "~/Documents/GitHub/ARKit-Project/assets",
				"patcherrelativepath" : "../assets",
				"type" : "WAVE",
				"implicit" : 1
			}
, 			{
				"name" : "OSC-route.mxe64",
				"type" : "mx64"
			}
 ],
		"autosave" : 0
	}

}
